<svg id="Ebene_1" data-name="Ebene 1" xmlns="http://www.w3.org/2000/svg" viewBox="0 0 415.68999 415.69"><defs><style>.cls-1{fill:#60b5a5;}.cls-2{fill:#d7edef;}.cls-3{opacity:0.3;fill:#edea83;}.cls-3,.cls-5{font-size:93px;font-family:CormorantUpright-Bold, Cormorant Upright;font-weight:700;}.cls-4{letter-spacing:0.006em;}.cls-5{fill:#fff0bf;}</style></defs><title>logo</title><circle class="cls-1" cx="212.98889" cy="212.43213" r="197.84509" transform="translate(-92.97307 208.2389) rotate(-45)"/><path class="cls-2" d="M212.98888,24.58692a187.845,187.845,0,0,1,132.82649,320.6715,187.845,187.845,0,0,1-265.653-265.653,186.61563,186.61563,0,0,1,132.8265-55.0185m0-20c-114.7896,0-207.845,93.0554-207.845,207.845s93.0554,207.845,207.845,207.845,207.845-93.05539,207.845-207.845-93.0553-207.845-207.845-207.845Z" transform="translate(-5.14388 -4.58692)"/><text class="cls-3" transform="translate(40.56315 230.32031)">c-<tspan class="cls-4" x="60.8208" y="0">h</tspan><tspan x="106.85547" y="0">oliday</tspan></text><text class="cls-5" transform="translate(45.25893 232.13408)">c-<tspan class="cls-4" x="60.8208" y="0">h</tspan><tspan x="106.85547" y="0">oliday</tspan></text></svg>